ISO-10303-21;
HEADER;

/* File generated by Shapr3D Version 5.991.0.9804 */

FILE_DESCRIPTION(('HOOPS Exchange Step'),'2;1');

FILE_NAME('/private/var/mobile/Containers/Data/Application/F1445142-BEFE-476E-BD9C-98CFF71330A7/tmp/export/temp_export',
'2026-06-02T21:40:25+17:00',
('mobile'),
('Shapr3D Limited'),
'HOOPS Exchange 2025.7',
'Shapr3D',
'Authorized');

FILE_SCHEMA( ('AP242_MANAGED_MODEL_BASED_3D_ENGINEERING_MIM_LF {1 0 10303 442 1 1 4}') );

ENDSEC;

DATA;
#3=(NAMED_UNIT(*)PLANE_ANGLE_UNIT()SI_UNIT($,.RADIAN.));
#4=PLANE_ANGLE_MEASURE_WITH_UNIT(PLANE_ANGLE_MEASURE(0.0174532925),#3);
#5=(CONVERSION_BASED_UNIT('DEGREE',#4)NAMED_UNIT(#6)PLANE_ANGLE_UNIT());
#6=DIMENSIONAL_EXPONENTS(0.,0.,0.,0.,0.,0.,0.);
#7=(NAMED_UNIT(*)SI_UNIT($,.STERADIAN.)SOLID_ANGLE_UNIT());
#8=(LENGTH_UNIT()NAMED_UNIT(*)SI_UNIT(.MILLI.,.METRE.));
#9=UNCERTAINTY_MEASURE_WITH_UNIT(LENGTH_MEASURE(1.000000E-05),#8,'DISTANCE_ACCURACY_VALUE','Maximum Tolerance applied to model');
#10=(GEOMETRIC_REPRESENTATION_CONTEXT(3)GLOBAL_UNCERTAINTY_ASSIGNED_CONTEXT((#9))GLOBAL_UNIT_ASSIGNED_CONTEXT((#8,#5,#7))REPRESENTATION_CONTEXT('','Body 01 (1)'));
#12=CARTESIAN_POINT('',(0.,0.,0.));
#13=DIRECTION('',(0.,0.,1.));
#14=DIRECTION('',(1.,0.,0.));
#15=AXIS2_PLACEMENT_3D('',#12,#13,#14);
#27=CARTESIAN_POINT('',(25.,25.,-95.));
#28=DIRECTION('',(-1.,0.,-0.));
#29=DIRECTION('',(0.,1.,0.));
#30=AXIS2_PLACEMENT_3D('',#27,#28,#29);
#31=PLANE('',#30);
#32=CARTESIAN_POINT('',(25.,40.,-95.));
#33=VERTEX_POINT('',#32);
#34=CARTESIAN_POINT('',(25.,40.,-54.677140719));
#35=VERTEX_POINT('',#34);
#36=CARTESIAN_POINT('',(25.,40.,-95.));
#37=DIRECTION('',(-0.,0.,1.));
#38=VECTOR('',#37,40.322859281);
#39=LINE('',#36,#38);
#40=EDGE_CURVE('',#33,#35,#39,.T.);
#41=ORIENTED_EDGE('',*,*,#40,.F.);
#42=CARTESIAN_POINT('',(25.,50.,-95.));
#43=VERTEX_POINT('',#42);
#44=CARTESIAN_POINT('',(25.,50.,-95.));
#45=DIRECTION('',(-0.,-1.,-0.));
#46=VECTOR('',#45,10.);
#47=LINE('',#44,#46);
#48=EDGE_CURVE('',#43,#33,#47,.T.);
#49=ORIENTED_EDGE('',*,*,#48,.F.);
#50=CARTESIAN_POINT('',(25.,50.,-25.));
#51=VERTEX_POINT('',#50);
#52=CARTESIAN_POINT('',(25.,50.,-95.));
#53=DIRECTION('',(-0.,-0.,1.));
#54=VECTOR('',#53,70.);
#55=LINE('',#52,#54);
#56=EDGE_CURVE('',#43,#51,#55,.T.);
#57=ORIENTED_EDGE('',*,*,#56,.T.);
#58=CARTESIAN_POINT('',(25.,70.,-25.));
#59=VERTEX_POINT('',#58);
#60=CARTESIAN_POINT('',(25.,70.,-25.));
#61=DIRECTION('',(0.,-1.,0.));
#62=VECTOR('',#61,20.);
#63=LINE('',#60,#62);
#64=EDGE_CURVE('',#59,#51,#63,.T.);
#65=ORIENTED_EDGE('',*,*,#64,.F.);
#66=CARTESIAN_POINT('',(25.,70.,25.));
#67=VERTEX_POINT('',#66);
#68=CARTESIAN_POINT('',(25.,70.,25.));
#69=DIRECTION('',(0.,0.,-1.));
#70=VECTOR('',#69,50.);
#71=LINE('',#68,#70);
#72=EDGE_CURVE('',#67,#59,#71,.T.);
#73=ORIENTED_EDGE('',*,*,#72,.F.);
#74=CARTESIAN_POINT('',(25.,0.,25.));
#75=VERTEX_POINT('',#74);
#76=CARTESIAN_POINT('',(25.,70.,25.));
#77=DIRECTION('',(0.,-1.,0.));
#78=VECTOR('',#77,70.);
#79=LINE('',#76,#78);
#80=EDGE_CURVE('',#67,#75,#79,.T.);
#81=ORIENTED_EDGE('',*,*,#80,.T.);
#82=CARTESIAN_POINT('',(25.,0.,-54.677140719));
#83=VERTEX_POINT('',#82);
#84=CARTESIAN_POINT('',(25.,-0.,-54.677140719));
#85=DIRECTION('',(-0.,-0.,1.));
#86=VECTOR('',#85,79.677140719);
#87=LINE('',#84,#86);
#88=EDGE_CURVE('',#83,#75,#87,.T.);
#89=ORIENTED_EDGE('',*,*,#88,.F.);
#90=CARTESIAN_POINT('',(25.,40.,-54.677140719));
#91=DIRECTION('',(0.,-1.,0.));
#92=VECTOR('',#91,40.);
#93=LINE('',#90,#92);
#94=EDGE_CURVE('',#35,#83,#93,.T.);
#95=ORIENTED_EDGE('',*,*,#94,.F.);
#96=EDGE_LOOP('',(#41,#49,#57,#65,#73,#81,#89,#95));
#97=FACE_BOUND('',#96,.T.);
#98=ADVANCED_FACE('',(#97),#31,.F.);
#99=CARTESIAN_POINT('',(-0.,3.,21.));
#100=DIRECTION('',(0.,-1.,-0.));
#101=DIRECTION('',(0.,0.,-1.));
#102=AXIS2_PLACEMENT_3D('',#99,#100,#101);
#103=PLANE('',#102);
#104=CARTESIAN_POINT('',(-22.,3.,-54.677140719));
#105=VERTEX_POINT('',#104);
#106=CARTESIAN_POINT('',(22.,3.,-54.677140719));
#107=VERTEX_POINT('',#106);
#108=CARTESIAN_POINT('',(-22.,3.,-54.677140719));
#109=DIRECTION('',(1.,0.,0.));
#110=VECTOR('',#109,44.);
#111=LINE('',#108,#110);
#112=EDGE_CURVE('',#105,#107,#111,.T.);
#113=ORIENTED_EDGE('',*,*,#112,.F.);
#114=CARTESIAN_POINT('',(-22.,3.,23.));
#115=VERTEX_POINT('',#114);
#116=CARTESIAN_POINT('',(-22.,3.,23.));
#117=DIRECTION('',(0.,0.,-1.));
#118=VECTOR('',#117,77.677140719);
#119=LINE('',#116,#118);
#120=EDGE_CURVE('',#115,#105,#119,.T.);
#121=ORIENTED_EDGE('',*,*,#120,.F.);
#122=CARTESIAN_POINT('',(22.,3.,23.));
#123=VERTEX_POINT('',#122);
#124=CARTESIAN_POINT('',(22.,3.,23.));
#125=DIRECTION('',(-1.,-0.,-0.));
#126=VECTOR('',#125,44.);
#127=LINE('',#124,#126);
#128=EDGE_CURVE('',#123,#115,#127,.T.);
#129=ORIENTED_EDGE('',*,*,#128,.F.);
#130=CARTESIAN_POINT('',(22.,3.,23.));
#131=DIRECTION('',(0.,0.,-1.));
#132=VECTOR('',#131,77.677140719);
#133=LINE('',#130,#132);
#134=EDGE_CURVE('',#123,#107,#133,.T.);
#135=ORIENTED_EDGE('',*,*,#134,.T.);
#136=EDGE_LOOP('',(#113,#121,#129,#135));
#137=FACE_BOUND('',#136,.T.);
#138=ADVANCED_FACE('',(#137),#103,.F.);
#139=CARTESIAN_POINT('',(-22.,25.,21.));
#140=DIRECTION('',(-1.,0.,-0.));
#141=DIRECTION('',(-0.,0.,1.));
#142=AXIS2_PLACEMENT_3D('',#139,#140,#141);
#143=PLANE('',#142);
#144=CARTESIAN_POINT('',(-22.,40.,-54.677140719));
#145=VERTEX_POINT('',#144);
#146=CARTESIAN_POINT('',(-22.,40.,-54.677140719));
#147=DIRECTION('',(-0.,-1.,0.));
#148=VECTOR('',#147,37.);
#149=LINE('',#146,#148);
#150=EDGE_CURVE('',#145,#105,#149,.T.);
#151=ORIENTED_EDGE('',*,*,#150,.F.);
#152=CARTESIAN_POINT('',(-22.,40.,-95.));
#153=VERTEX_POINT('',#152);
#154=CARTESIAN_POINT('',(-22.,40.,-95.));
#155=DIRECTION('',(-0.,0.,1.));
#156=VECTOR('',#155,40.322859281);
#157=LINE('',#154,#156);
#158=EDGE_CURVE('',#153,#145,#157,.T.);
#159=ORIENTED_EDGE('',*,*,#158,.F.);
#160=CARTESIAN_POINT('',(-22.,47.,-95.));
#161=VERTEX_POINT('',#160);
#162=CARTESIAN_POINT('',(-22.,40.,-95.));
#163=DIRECTION('',(0.,1.,0.));
#164=VECTOR('',#163,7.);
#165=LINE('',#162,#164);
#166=EDGE_CURVE('',#153,#161,#165,.T.);
#167=ORIENTED_EDGE('',*,*,#166,.T.);
#168=CARTESIAN_POINT('',(-22.,47.,23.));
#169=VERTEX_POINT('',#168);
#170=CARTESIAN_POINT('',(-22.,47.,23.));
#171=DIRECTION('',(0.,0.,-1.));
#172=VECTOR('',#171,118.);
#173=LINE('',#170,#172);
#174=EDGE_CURVE('',#169,#161,#173,.T.);
#175=ORIENTED_EDGE('',*,*,#174,.F.);
#176=CARTESIAN_POINT('',(-22.,3.,23.));
#177=DIRECTION('',(0.,1.,0.));
#178=VECTOR('',#177,44.);
#179=LINE('',#176,#178);
#180=EDGE_CURVE('',#115,#169,#179,.T.);
#181=ORIENTED_EDGE('',*,*,#180,.F.);
#182=ORIENTED_EDGE('',*,*,#120,.T.);
#183=EDGE_LOOP('',(#151,#159,#167,#175,#181,#182));
#184=FACE_BOUND('',#183,.T.);
#185=ADVANCED_FACE('',(#184),#143,.F.);
#186=CARTESIAN_POINT('',(22.,25.,21.));
#187=DIRECTION('',(1.,-0.,0.));
#188=DIRECTION('',(0.,0.,-1.));
#189=AXIS2_PLACEMENT_3D('',#186,#187,#188);
#190=PLANE('',#189);
#191=CARTESIAN_POINT('',(22.,40.,-54.677140719));
#192=VERTEX_POINT('',#191);
#193=CARTESIAN_POINT('',(22.,3.,-54.677140719));
#194=DIRECTION('',(0.,1.,0.));
#195=VECTOR('',#194,37.);
#196=LINE('',#193,#195);
#197=EDGE_CURVE('',#107,#192,#196,.T.);
#198=ORIENTED_EDGE('',*,*,#197,.F.);
#199=ORIENTED_EDGE('',*,*,#134,.F.);
#200=CARTESIAN_POINT('',(22.,47.,23.));
#201=VERTEX_POINT('',#200);
#202=CARTESIAN_POINT('',(22.,47.,23.));
#203=DIRECTION('',(-0.,-1.,-0.));
#204=VECTOR('',#203,44.);
#205=LINE('',#202,#204);
#206=EDGE_CURVE('',#201,#123,#205,.T.);
#207=ORIENTED_EDGE('',*,*,#206,.F.);
#208=CARTESIAN_POINT('',(22.,47.,-95.));
#209=VERTEX_POINT('',#208);
#210=CARTESIAN_POINT('',(22.,47.,23.));
#211=DIRECTION('',(0.,0.,-1.));
#212=VECTOR('',#211,118.);
#213=LINE('',#210,#212);
#214=EDGE_CURVE('',#201,#209,#213,.T.);
#215=ORIENTED_EDGE('',*,*,#214,.T.);
#216=CARTESIAN_POINT('',(22.,40.,-95.));
#217=VERTEX_POINT('',#216);
#218=CARTESIAN_POINT('',(22.,47.,-95.));
#219=DIRECTION('',(-0.,-1.,-0.));
#220=VECTOR('',#219,7.);
#221=LINE('',#218,#220);
#222=EDGE_CURVE('',#209,#217,#221,.T.);
#223=ORIENTED_EDGE('',*,*,#222,.T.);
#224=CARTESIAN_POINT('',(22.,40.,-54.677140719));
#225=DIRECTION('',(0.,0.,-1.));
#226=VECTOR('',#225,40.322859281);
#227=LINE('',#224,#226);
#228=EDGE_CURVE('',#192,#217,#227,.T.);
#229=ORIENTED_EDGE('',*,*,#228,.F.);
#230=EDGE_LOOP('',(#198,#199,#207,#215,#223,#229));
#231=FACE_BOUND('',#230,.T.);
#232=ADVANCED_FACE('',(#231),#190,.F.);
#233=CARTESIAN_POINT('',(0.,50.,-95.));
#234=DIRECTION('',(-0.,-1.,-0.));
#235=DIRECTION('',(-1.,0.,-0.));
#236=AXIS2_PLACEMENT_3D('',#233,#234,#235);
#237=PLANE('',#236);
#238=CARTESIAN_POINT('',(-25.,50.,-25.));
#239=VERTEX_POINT('',#238);
#240=CARTESIAN_POINT('',(-25.,50.,-25.));
#241=DIRECTION('',(1.,-0.,0.));
#242=VECTOR('',#241,50.);
#243=LINE('',#240,#242);
#244=EDGE_CURVE('',#239,#51,#243,.T.);
#245=ORIENTED_EDGE('',*,*,#244,.T.);
#246=ORIENTED_EDGE('',*,*,#56,.F.);
#247=CARTESIAN_POINT('',(-25.,50.,-95.));
#248=VERTEX_POINT('',#247);
#249=CARTESIAN_POINT('',(-25.,50.,-95.));
#250=DIRECTION('',(1.,-0.,0.));
#251=VECTOR('',#250,50.);
#252=LINE('',#249,#251);
#253=EDGE_CURVE('',#248,#43,#252,.T.);
#254=ORIENTED_EDGE('',*,*,#253,.F.);
#255=CARTESIAN_POINT('',(-25.,50.,-95.));
#256=DIRECTION('',(-0.,-0.,1.));
#257=VECTOR('',#256,70.);
#258=LINE('',#255,#257);
#259=EDGE_CURVE('',#248,#239,#258,.T.);
#260=ORIENTED_EDGE('',*,*,#259,.T.);
#261=EDGE_LOOP('',(#245,#246,#254,#260));
#262=FACE_BOUND('',#261,.T.);
#263=ADVANCED_FACE('',(#262),#237,.F.);
#264=CARTESIAN_POINT('',(-25.,25.,-95.));
#265=DIRECTION('',(1.,-0.,0.));
#266=DIRECTION('',(-0.,-1.,-0.));
#267=AXIS2_PLACEMENT_3D('',#264,#265,#266);
#268=PLANE('',#267);
#269=CARTESIAN_POINT('',(-25.,40.,-95.));
#270=VERTEX_POINT('',#269);
#271=CARTESIAN_POINT('',(-25.,40.,-54.677140719));
#272=VERTEX_POINT('',#271);
#273=CARTESIAN_POINT('',(-25.,40.,-95.));
#274=DIRECTION('',(-0.,0.,1.));
#275=VECTOR('',#274,40.322859281);
#276=LINE('',#273,#275);
#277=EDGE_CURVE('',#270,#272,#276,.T.);
#278=ORIENTED_EDGE('',*,*,#277,.T.);
#279=CARTESIAN_POINT('',(-25.,0.,-54.677140719));
#280=VERTEX_POINT('',#279);
#281=CARTESIAN_POINT('',(-25.,40.,-54.677140719));
#282=DIRECTION('',(0.,-1.,0.));
#283=VECTOR('',#282,40.);
#284=LINE('',#281,#283);
#285=EDGE_CURVE('',#272,#280,#284,.T.);
#286=ORIENTED_EDGE('',*,*,#285,.T.);
#287=CARTESIAN_POINT('',(-25.,0.,25.));
#288=VERTEX_POINT('',#287);
#289=CARTESIAN_POINT('',(-25.,-0.,-54.677140719));
#290=DIRECTION('',(-0.,-0.,1.));
#291=VECTOR('',#290,79.677140719);
#292=LINE('',#289,#291);
#293=EDGE_CURVE('',#280,#288,#292,.T.);
#294=ORIENTED_EDGE('',*,*,#293,.T.);
#295=CARTESIAN_POINT('',(-25.,70.,25.));
#296=VERTEX_POINT('',#295);
#297=CARTESIAN_POINT('',(-25.,70.,25.));
#298=DIRECTION('',(0.,-1.,0.));
#299=VECTOR('',#298,70.);
#300=LINE('',#297,#299);
#301=EDGE_CURVE('',#296,#288,#300,.T.);
#302=ORIENTED_EDGE('',*,*,#301,.F.);
#303=CARTESIAN_POINT('',(-25.,70.,-25.));
#304=VERTEX_POINT('',#303);
#305=CARTESIAN_POINT('',(-25.,70.,-25.));
#306=DIRECTION('',(-0.,0.,1.));
#307=VECTOR('',#306,50.);
#308=LINE('',#305,#307);
#309=EDGE_CURVE('',#304,#296,#308,.T.);
#310=ORIENTED_EDGE('',*,*,#309,.F.);
#311=CARTESIAN_POINT('',(-25.,70.,-25.));
#312=DIRECTION('',(0.,-1.,0.));
#313=VECTOR('',#312,20.);
#314=LINE('',#311,#313);
#315=EDGE_CURVE('',#304,#239,#314,.T.);
#316=ORIENTED_EDGE('',*,*,#315,.T.);
#317=ORIENTED_EDGE('',*,*,#259,.F.);
#318=CARTESIAN_POINT('',(-25.,40.,-95.));
#319=DIRECTION('',(0.,1.,0.));
#320=VECTOR('',#319,10.);
#321=LINE('',#318,#320);
#322=EDGE_CURVE('',#270,#248,#321,.T.);
#323=ORIENTED_EDGE('',*,*,#322,.F.);
#324=EDGE_LOOP('',(#278,#286,#294,#302,#310,#316,#317,#323));
#325=FACE_BOUND('',#324,.T.);
#326=ADVANCED_FACE('',(#325),#268,.F.);
#327=CARTESIAN_POINT('',(0.,0.,-95.));
#328=DIRECTION('',(-0.,1.,0.));
#329=DIRECTION('',(1.,0.,0.));
#330=AXIS2_PLACEMENT_3D('',#327,#328,#329);
#331=PLANE('',#330);
#332=ORIENTED_EDGE('',*,*,#293,.F.);
#333=CARTESIAN_POINT('',(-25.,0.,-54.677140719));
#334=DIRECTION('',(1.,0.,-0.));
#335=VECTOR('',#334,50.);
#336=LINE('',#333,#335);
#337=EDGE_CURVE('',#280,#83,#336,.T.);
#338=ORIENTED_EDGE('',*,*,#337,.T.);
#339=ORIENTED_EDGE('',*,*,#88,.T.);
#340=CARTESIAN_POINT('',(-25.,0.,25.));
#341=DIRECTION('',(1.,0.,0.));
#342=VECTOR('',#341,50.);
#343=LINE('',#340,#342);
#344=EDGE_CURVE('',#288,#75,#343,.T.);
#345=ORIENTED_EDGE('',*,*,#344,.F.);
#346=EDGE_LOOP('',(#332,#338,#339,#345));
#347=FACE_BOUND('',#346,.T.);
#348=ADVANCED_FACE('',(#347),#331,.F.);
#349=CARTESIAN_POINT('',(0.,25.,-95.));
#350=DIRECTION('',(-0.,-0.,1.));
#351=DIRECTION('',(1.,-0.,0.));
#352=AXIS2_PLACEMENT_3D('',#349,#350,#351);
#353=PLANE('',#352);
#354=ORIENTED_EDGE('',*,*,#48,.T.);
#355=CARTESIAN_POINT('',(25.,40.,-95.));
#356=DIRECTION('',(-1.,0.,-0.));
#357=VECTOR('',#356,3.);
#358=LINE('',#355,#357);
#359=EDGE_CURVE('',#33,#217,#358,.T.);
#360=ORIENTED_EDGE('',*,*,#359,.T.);
#361=ORIENTED_EDGE('',*,*,#222,.F.);
#362=CARTESIAN_POINT('',(-22.,47.,-95.));
#363=DIRECTION('',(1.,-0.,0.));
#364=VECTOR('',#363,44.);
#365=LINE('',#362,#364);
#366=EDGE_CURVE('',#161,#209,#365,.T.);
#367=ORIENTED_EDGE('',*,*,#366,.F.);
#368=ORIENTED_EDGE('',*,*,#166,.F.);
#369=CARTESIAN_POINT('',(-22.,40.,-95.));
#370=DIRECTION('',(-1.,0.,-0.));
#371=VECTOR('',#370,3.);
#372=LINE('',#369,#371);
#373=EDGE_CURVE('',#153,#270,#372,.T.);
#374=ORIENTED_EDGE('',*,*,#373,.T.);
#375=ORIENTED_EDGE('',*,*,#322,.T.);
#376=ORIENTED_EDGE('',*,*,#253,.T.);
#377=EDGE_LOOP('',(#354,#360,#361,#367,#368,#374,#375,#376));
#378=FACE_BOUND('',#377,.T.);
#379=ADVANCED_FACE('',(#378),#353,.F.);
#380=CARTESIAN_POINT('',(-0.,47.,21.));
#381=DIRECTION('',(0.,1.,0.));
#382=DIRECTION('',(-1.,0.,0.));
#383=AXIS2_PLACEMENT_3D('',#380,#381,#382);
#384=PLANE('',#383);
#385=ORIENTED_EDGE('',*,*,#214,.F.);
#386=CARTESIAN_POINT('',(-22.,47.,23.));
#387=DIRECTION('',(1.,-0.,0.));
#388=VECTOR('',#387,44.);
#389=LINE('',#386,#388);
#390=EDGE_CURVE('',#169,#201,#389,.T.);
#391=ORIENTED_EDGE('',*,*,#390,.F.);
#392=ORIENTED_EDGE('',*,*,#174,.T.);
#393=ORIENTED_EDGE('',*,*,#366,.T.);
#394=EDGE_LOOP('',(#385,#391,#392,#393));
#395=FACE_BOUND('',#394,.T.);
#396=ADVANCED_FACE('',(#395),#384,.F.);
#397=CARTESIAN_POINT('',(0.,40.,-54.677140719));
#398=DIRECTION('',(0.,0.,-1.));
#399=DIRECTION('',(-1.,0.,0.));
#400=AXIS2_PLACEMENT_3D('',#397,#398,#399);
#401=PLANE('',#400);
#402=ORIENTED_EDGE('',*,*,#150,.T.);
#403=ORIENTED_EDGE('',*,*,#112,.T.);
#404=ORIENTED_EDGE('',*,*,#197,.T.);
#405=CARTESIAN_POINT('',(22.,40.,-54.677140719));
#406=DIRECTION('',(1.,0.,-0.));
#407=VECTOR('',#406,3.);
#408=LINE('',#405,#407);
#409=EDGE_CURVE('',#192,#35,#408,.T.);
#410=ORIENTED_EDGE('',*,*,#409,.T.);
#411=ORIENTED_EDGE('',*,*,#94,.T.);
#412=ORIENTED_EDGE('',*,*,#337,.F.);
#413=ORIENTED_EDGE('',*,*,#285,.F.);
#414=CARTESIAN_POINT('',(-25.,40.,-54.677140719));
#415=DIRECTION('',(1.,0.,-0.));
#416=VECTOR('',#415,3.);
#417=LINE('',#414,#416);
#418=EDGE_CURVE('',#272,#145,#417,.T.);
#419=ORIENTED_EDGE('',*,*,#418,.T.);
#420=EDGE_LOOP('',(#402,#403,#404,#410,#411,#412,#413,#419));
#421=FACE_BOUND('',#420,.T.);
#422=ADVANCED_FACE('',(#421),#401,.T.);
#423=CARTESIAN_POINT('',(0.,40.,0.));
#424=DIRECTION('',(0.,-1.,0.));
#425=DIRECTION('',(1.,0.,0.));
#426=AXIS2_PLACEMENT_3D('',#423,#424,#425);
#427=PLANE('',#426);
#428=ORIENTED_EDGE('',*,*,#158,.T.);
#429=ORIENTED_EDGE('',*,*,#418,.F.);
#430=ORIENTED_EDGE('',*,*,#277,.F.);
#431=ORIENTED_EDGE('',*,*,#373,.F.);
#432=EDGE_LOOP('',(#428,#429,#430,#431));
#433=FACE_BOUND('',#432,.T.);
#434=ADVANCED_FACE('',(#433),#427,.T.);
#435=CARTESIAN_POINT('',(0.,40.,0.));
#436=DIRECTION('',(0.,-1.,0.));
#437=DIRECTION('',(1.,0.,0.));
#438=AXIS2_PLACEMENT_3D('',#435,#436,#437);
#439=PLANE('',#438);
#440=ORIENTED_EDGE('',*,*,#228,.T.);
#441=ORIENTED_EDGE('',*,*,#359,.F.);
#442=ORIENTED_EDGE('',*,*,#40,.T.);
#443=ORIENTED_EDGE('',*,*,#409,.F.);
#444=EDGE_LOOP('',(#440,#441,#442,#443));
#445=FACE_BOUND('',#444,.T.);
#446=ADVANCED_FACE('',(#445),#439,.T.);
#447=CARTESIAN_POINT('',(-0.,70.,25.));
#448=DIRECTION('',(0.,0.,-1.));
#449=DIRECTION('',(-1.,0.,-0.));
#450=AXIS2_PLACEMENT_3D('',#447,#448,#449);
#451=PLANE('',#450);
#452=ORIENTED_EDGE('',*,*,#344,.T.);
#453=ORIENTED_EDGE('',*,*,#80,.F.);
#454=CARTESIAN_POINT('',(-25.,70.,25.));
#455=DIRECTION('',(1.,0.,0.));
#456=VECTOR('',#455,50.);
#457=LINE('',#454,#456);
#458=EDGE_CURVE('',#296,#67,#457,.T.);
#459=ORIENTED_EDGE('',*,*,#458,.F.);
#460=ORIENTED_EDGE('',*,*,#301,.T.);
#461=EDGE_LOOP('',(#452,#453,#459,#460));
#462=FACE_BOUND('',#461,.T.);
#463=ADVANCED_FACE('',(#462),#451,.F.);
#464=CARTESIAN_POINT('',(0.,70.,0.));
#465=DIRECTION('',(0.,-1.,0.));
#466=DIRECTION('',(1.,0.,0.));
#467=AXIS2_PLACEMENT_3D('',#464,#465,#466);
#468=PLANE('',#467);
#469=ORIENTED_EDGE('',*,*,#72,.T.);
#470=CARTESIAN_POINT('',(25.,70.,-25.));
#471=DIRECTION('',(-1.,0.,-0.));
#472=VECTOR('',#471,50.);
#473=LINE('',#470,#472);
#474=EDGE_CURVE('',#59,#304,#473,.T.);
#475=ORIENTED_EDGE('',*,*,#474,.T.);
#476=ORIENTED_EDGE('',*,*,#309,.T.);
#477=ORIENTED_EDGE('',*,*,#458,.T.);
#478=EDGE_LOOP('',(#469,#475,#476,#477));
#479=FACE_BOUND('',#478,.T.);
#480=ADVANCED_FACE('',(#479),#468,.F.);
#481=CARTESIAN_POINT('',(0.,70.,-25.));
#482=DIRECTION('',(-0.,0.,1.));
#483=DIRECTION('',(1.,0.,0.));
#484=AXIS2_PLACEMENT_3D('',#481,#482,#483);
#485=PLANE('',#484);
#486=ORIENTED_EDGE('',*,*,#244,.F.);
#487=ORIENTED_EDGE('',*,*,#315,.F.);
#488=ORIENTED_EDGE('',*,*,#474,.F.);
#489=ORIENTED_EDGE('',*,*,#64,.T.);
#490=EDGE_LOOP('',(#486,#487,#488,#489));
#491=FACE_BOUND('',#490,.T.);
#492=ADVANCED_FACE('',(#491),#485,.F.);
#493=CARTESIAN_POINT('',(-0.,25.,23.));
#494=DIRECTION('',(0.,0.,-1.));
#495=DIRECTION('',(-1.,0.,-0.));
#496=AXIS2_PLACEMENT_3D('',#493,#494,#495);
#497=PLANE('',#496);
#498=ORIENTED_EDGE('',*,*,#128,.T.);
#499=ORIENTED_EDGE('',*,*,#180,.T.);
#500=ORIENTED_EDGE('',*,*,#390,.T.);
#501=ORIENTED_EDGE('',*,*,#206,.T.);
#502=EDGE_LOOP('',(#498,#499,#500,#501));
#503=FACE_BOUND('',#502,.T.);
#504=ADVANCED_FACE('',(#503),#497,.T.);
#505=CLOSED_SHELL('',(#98,#138,#185,#232,#263,#326,#348,#379,#396,#422,#434,#446,#463,#480,#492,#504));
#506=MANIFOLD_SOLID_BREP('Body 01 (1)',#505);
#507=COLOUR_RGB('',0.627451003,0.627451003,0.643137276);
#508=FILL_AREA_STYLE_COLOUR('',#507);
#509=FILL_AREA_STYLE('',(#508));
#510=SURFACE_STYLE_FILL_AREA(#509);
#511=SURFACE_SIDE_STYLE('',(#510));
#512=SURFACE_STYLE_USAGE(.BOTH.,#511);
#513=PRESENTATION_STYLE_ASSIGNMENT((#512));
#26=STYLED_ITEM('',(#513),#506);
#16=SHAPE_REPRESENTATION('Body 01 (1)',(#15),#10);
#17=ADVANCED_BREP_SHAPE_REPRESENTATION('Body 01 (1)',(#506),#10);
#521=SHAPE_REPRESENTATION_RELATIONSHIP('','',#16,#17);
#522=CARTESIAN_POINT('',(0.,0.,0.));
#523=DIRECTION('',(0.,0.,1.));
#524=DIRECTION('',(1.,0.,0.));
#525=AXIS2_PLACEMENT_3D('',#522,#523,#524);
#527=MAPPED_ITEM('',#526,#525);
#526=REPRESENTATION_MAP(#525,#16);
#528=APPLICATION_CONTEXT('Managed model based 3d engineering');
#529=APPLICATION_PROTOCOL_DEFINITION('international standard','ap242_managed_model_based_3d_engineering',2014,#528);
#530=PRODUCT_CONTEXT('',#528,'mechanical');
#531=PRODUCT_DEFINITION_CONTEXT('part definition',#528,'design');
#24=PRODUCT('Body 01 (1)','Body 01 (1)','',(#530));
#532=PRODUCT_RELATED_PRODUCT_CATEGORY('part','',(#24));
#533=PRODUCT_DEFINITION_FORMATION_WITH_SPECIFIED_SOURCE('','',#24,.NOT_KNOWN.);
#25=PRODUCT_DEFINITION('design','',#533,#531);
#23=PRODUCT_DEFINITION_SHAPE('','',#25);
#534=SHAPE_DEFINITION_REPRESENTATION(#23,#16);
#11=DRAUGHTING_MODEL('',(#527),#10);
#535=DESCRIPTIVE_REPRESENTATION_ITEM('KEY','/private/var/mobile/Containers/Data/Application/F1445142-BEFE-476E-BD9C-98CFF71330A7/tmp/5324BBBE-29C7-4477-8C17-B320C9592FCD.tmp');
#536=PROPERTY_DEFINITION('KEY','',#25);
#537=REPRESENTATION('',(#535),#10);
#538=PROPERTY_DEFINITION_REPRESENTATION(#536,#537);
#539=GENERAL_PROPERTY('','KEY','');
#540=GENERAL_PROPERTY_ASSOCIATION('','',#539,#536);
#1=MECHANICAL_DESIGN_GEOMETRIC_PRESENTATION_REPRESENTATION('',(#26),#10);
ENDSEC;
END-ISO-10303-21;
